# xmcd CD database file generated by Grip 2.96
# 
# Track frame offsets:
#       150
#       24705
#       48380
#       71225
#       95877
#       121450
#       144162
#       161702
#       183372
#       205007
#       232022
#       250387
#       273317
# 
# Disc length: 3944 seconds
# 
# Revision: 0
# Processed by: cddbd v1.5PL3 Copyright (c) Steve Scherf et al.
# Submitted via: Grip 2.96
# 
DISCID=c20f660d
DTITLE=S.P. Balasubrahmanyam - S.P.B Hits
DYEAR=1900
DGENRE=
TTITLE0=Sivappu Lolakku
TTITLE1=Naadodi Paattu Paada
TTITLE2=Thanga Thaamarai
TTITLE3=Kalyannam Kaccheri
TTITLE4=Kamban Sholly
TTITLE5=Unnal Mudiyum
TTITLE6=Kaadhal Yenna
TTITLE7=Vaanampaadi
TTITLE8=Pottu Vaccha Killiae
TTITLE9=Yen Kaadhali
TTITLE10=Poongkaatru Vessum
TTITLE11=Yendha Pennidamum
TTITLE12=Putham Pudhu Malarae
EXTD=
EXTT0=
EXTT1=
EXTT2=
EXTT3=
EXTT4=
EXTT5=
EXTT6=
EXTT7=
EXTT8=
EXTT9=
EXTT10=
EXTT11=
EXTT12=
PLAYORDER=
